<mxfile host="app.diagrams.net" modified="2022-10-06T05:15:47.201Z" agent="5.0 (Windows NT 10.0; Win64; x64) AppleWebKit/537.36 (KHTML, like Gecko) Chrome/106.0.0.0 Safari/537.36" etag="Pm71mNwkVEr8JhYo9BCI" version="20.1.4" type="github">
  <diagram id="4wfSzbC2v-w3akmDxQZD" name="PÃ¡gina-1">
    <mxGraphModel dx="1753" dy="997" grid="1" gridSize="10" guides="1" tooltips="1" connect="1" arrows="1" fold="1" page="1" pageScale="1" pageWidth="2339" pageHeight="3300" math="0" shadow="0">
      <root>
        <mxCell id="0" />
        <mxCell id="1" parent="0" />
        <mxCell id="71vDbNSIMIsE2ZAoYJZC-2" value="User" style="rounded=0;whiteSpace=wrap;html=1;" parent="1" vertex="1">
          <mxGeometry x="870" y="460" width="90" height="40" as="geometry" />
        </mxCell>
        <mxCell id="71vDbNSIMIsE2ZAoYJZC-3" value="Login" style="rounded=0;whiteSpace=wrap;html=1;" parent="1" vertex="1">
          <mxGeometry x="985" y="460" width="90" height="40" as="geometry" />
        </mxCell>
        <mxCell id="71vDbNSIMIsE2ZAoYJZC-5" value="" style="endArrow=classic;html=1;rounded=0;exitX=1;exitY=0.5;exitDx=0;exitDy=0;entryX=0;entryY=0.5;entryDx=0;entryDy=0;" parent="1" source="71vDbNSIMIsE2ZAoYJZC-2" target="71vDbNSIMIsE2ZAoYJZC-3" edge="1">
          <mxGeometry width="50" height="50" relative="1" as="geometry">
            <mxPoint x="1165" y="550" as="sourcePoint" />
            <mxPoint x="1215" y="500" as="targetPoint" />
          </mxGeometry>
        </mxCell>
        <mxCell id="71vDbNSIMIsE2ZAoYJZC-9" value="yes" style="edgeStyle=orthogonalEdgeStyle;rounded=0;orthogonalLoop=1;jettySize=auto;html=1;entryX=0.5;entryY=0;entryDx=0;entryDy=0;" parent="1" source="71vDbNSIMIsE2ZAoYJZC-6" target="71vDbNSIMIsE2ZAoYJZC-20" edge="1">
          <mxGeometry relative="1" as="geometry">
            <mxPoint x="1030" y="790" as="targetPoint" />
          </mxGeometry>
        </mxCell>
        <mxCell id="71vDbNSIMIsE2ZAoYJZC-12" value="no" style="edgeStyle=orthogonalEdgeStyle;rounded=0;orthogonalLoop=1;jettySize=auto;html=1;exitX=1;exitY=0.5;exitDx=0;exitDy=0;entryX=0;entryY=0.5;entryDx=0;entryDy=0;" parent="1" source="71vDbNSIMIsE2ZAoYJZC-6" target="71vDbNSIMIsE2ZAoYJZC-18" edge="1">
          <mxGeometry relative="1" as="geometry">
            <mxPoint x="1110" y="710" as="targetPoint" />
          </mxGeometry>
        </mxCell>
        <mxCell id="71vDbNSIMIsE2ZAoYJZC-43" style="edgeStyle=orthogonalEdgeStyle;rounded=0;orthogonalLoop=1;jettySize=auto;html=1;entryX=0.5;entryY=1;entryDx=0;entryDy=0;" parent="1" source="71vDbNSIMIsE2ZAoYJZC-6" target="RsIxK5zwgHmmIfgbnyUv-2" edge="1">
          <mxGeometry relative="1" as="geometry" />
        </mxCell>
        <mxCell id="71vDbNSIMIsE2ZAoYJZC-6" value="Login" style="rhombus;whiteSpace=wrap;html=1;" parent="1" vertex="1">
          <mxGeometry x="990" y="670" width="80" height="80" as="geometry" />
        </mxCell>
        <mxCell id="71vDbNSIMIsE2ZAoYJZC-33" style="edgeStyle=orthogonalEdgeStyle;rounded=0;orthogonalLoop=1;jettySize=auto;html=1;exitX=1;exitY=0.5;exitDx=0;exitDy=0;entryX=0;entryY=0.5;entryDx=0;entryDy=0;" parent="1" source="71vDbNSIMIsE2ZAoYJZC-18" target="71vDbNSIMIsE2ZAoYJZC-32" edge="1">
          <mxGeometry relative="1" as="geometry" />
        </mxCell>
        <mxCell id="71vDbNSIMIsE2ZAoYJZC-18" value="Sign up" style="rounded=1;whiteSpace=wrap;html=1;" parent="1" vertex="1">
          <mxGeometry x="1125" y="690" width="70" height="40" as="geometry" />
        </mxCell>
        <mxCell id="71vDbNSIMIsE2ZAoYJZC-23" value="yes" style="edgeStyle=orthogonalEdgeStyle;rounded=0;orthogonalLoop=1;jettySize=auto;html=1;entryX=0.5;entryY=0;entryDx=0;entryDy=0;" parent="1" source="71vDbNSIMIsE2ZAoYJZC-20" target="RsIxK5zwgHmmIfgbnyUv-8" edge="1">
          <mxGeometry relative="1" as="geometry">
            <mxPoint x="1030" y="925" as="targetPoint" />
          </mxGeometry>
        </mxCell>
        <mxCell id="71vDbNSIMIsE2ZAoYJZC-55" value="no" style="edgeStyle=orthogonalEdgeStyle;rounded=0;orthogonalLoop=1;jettySize=auto;html=1;entryX=1;entryY=0.5;entryDx=0;entryDy=0;" parent="1" source="71vDbNSIMIsE2ZAoYJZC-20" target="71vDbNSIMIsE2ZAoYJZC-54" edge="1">
          <mxGeometry relative="1" as="geometry" />
        </mxCell>
        <mxCell id="71vDbNSIMIsE2ZAoYJZC-20" value="clients" style="rhombus;whiteSpace=wrap;html=1;" parent="1" vertex="1">
          <mxGeometry x="995" y="805" width="70" height="70" as="geometry" />
        </mxCell>
        <mxCell id="71vDbNSIMIsE2ZAoYJZC-32" value="new account form" style="whiteSpace=wrap;html=1;" parent="1" vertex="1">
          <mxGeometry x="1230" y="690" width="80" height="40" as="geometry" />
        </mxCell>
        <mxCell id="71vDbNSIMIsE2ZAoYJZC-37" value="" style="endArrow=classic;html=1;rounded=0;exitX=0.5;exitY=0;exitDx=0;exitDy=0;" parent="1" source="71vDbNSIMIsE2ZAoYJZC-32" edge="1">
          <mxGeometry width="50" height="50" relative="1" as="geometry">
            <mxPoint x="1120" y="840" as="sourcePoint" />
            <mxPoint x="1030" y="640" as="targetPoint" />
            <Array as="points">
              <mxPoint x="1270" y="640" />
            </Array>
          </mxGeometry>
        </mxCell>
        <mxCell id="71vDbNSIMIsE2ZAoYJZC-41" style="edgeStyle=orthogonalEdgeStyle;rounded=0;orthogonalLoop=1;jettySize=auto;html=1;exitX=0.5;exitY=1;exitDx=0;exitDy=0;entryX=0.5;entryY=0;entryDx=0;entryDy=0;" parent="1" source="71vDbNSIMIsE2ZAoYJZC-39" target="71vDbNSIMIsE2ZAoYJZC-40" edge="1">
          <mxGeometry relative="1" as="geometry" />
        </mxCell>
        <mxCell id="71vDbNSIMIsE2ZAoYJZC-39" value="data form" style="rounded=0;whiteSpace=wrap;html=1;" parent="1" vertex="1">
          <mxGeometry x="990" y="1030" width="80" height="40" as="geometry" />
        </mxCell>
        <mxCell id="71vDbNSIMIsE2ZAoYJZC-40" value="completed form" style="rhombus;whiteSpace=wrap;html=1;" parent="1" vertex="1">
          <mxGeometry x="985" y="1110" width="90" height="90" as="geometry" />
        </mxCell>
        <mxCell id="71vDbNSIMIsE2ZAoYJZC-42" value="no" style="endArrow=classic;html=1;rounded=0;exitX=1;exitY=0.5;exitDx=0;exitDy=0;entryX=1;entryY=0.5;entryDx=0;entryDy=0;" parent="1" source="71vDbNSIMIsE2ZAoYJZC-40" target="71vDbNSIMIsE2ZAoYJZC-39" edge="1">
          <mxGeometry width="50" height="50" relative="1" as="geometry">
            <mxPoint x="930" y="1030" as="sourcePoint" />
            <mxPoint x="980" y="980" as="targetPoint" />
            <Array as="points">
              <mxPoint x="1110" y="1155" />
              <mxPoint x="1110" y="1050" />
            </Array>
          </mxGeometry>
        </mxCell>
        <mxCell id="71vDbNSIMIsE2ZAoYJZC-58" style="edgeStyle=orthogonalEdgeStyle;rounded=0;orthogonalLoop=1;jettySize=auto;html=1;entryX=0;entryY=0.5;entryDx=0;entryDy=0;" parent="1" source="71vDbNSIMIsE2ZAoYJZC-46" target="71vDbNSIMIsE2ZAoYJZC-57" edge="1">
          <mxGeometry relative="1" as="geometry" />
        </mxCell>
        <mxCell id="71vDbNSIMIsE2ZAoYJZC-46" value="payment process" style="rounded=0;whiteSpace=wrap;html=1;" parent="1" vertex="1">
          <mxGeometry x="981" y="1250" width="100" height="50" as="geometry" />
        </mxCell>
        <mxCell id="71vDbNSIMIsE2ZAoYJZC-50" value="yes" style="edgeStyle=orthogonalEdgeStyle;rounded=0;orthogonalLoop=1;jettySize=auto;html=1;entryX=0.5;entryY=0;entryDx=0;entryDy=0;exitX=0.5;exitY=1;exitDx=0;exitDy=0;" parent="1" source="71vDbNSIMIsE2ZAoYJZC-40" target="71vDbNSIMIsE2ZAoYJZC-46" edge="1">
          <mxGeometry relative="1" as="geometry">
            <mxPoint x="1024" y="1200" as="sourcePoint" />
          </mxGeometry>
        </mxCell>
        <mxCell id="RsIxK5zwgHmmIfgbnyUv-27" style="edgeStyle=orthogonalEdgeStyle;rounded=0;orthogonalLoop=1;jettySize=auto;html=1;entryX=1;entryY=0.5;entryDx=0;entryDy=0;" edge="1" parent="1" source="71vDbNSIMIsE2ZAoYJZC-54" target="RsIxK5zwgHmmIfgbnyUv-26">
          <mxGeometry relative="1" as="geometry" />
        </mxCell>
        <mxCell id="RsIxK5zwgHmmIfgbnyUv-30" value="receives" style="edgeStyle=orthogonalEdgeStyle;rounded=0;orthogonalLoop=1;jettySize=auto;html=1;" edge="1" parent="1" source="71vDbNSIMIsE2ZAoYJZC-54" target="RsIxK5zwgHmmIfgbnyUv-19">
          <mxGeometry relative="1" as="geometry" />
        </mxCell>
        <mxCell id="71vDbNSIMIsE2ZAoYJZC-54" value="Admin" style="rounded=1;whiteSpace=wrap;html=1;" parent="1" vertex="1">
          <mxGeometry x="830" y="820" width="70" height="40" as="geometry" />
        </mxCell>
        <mxCell id="RsIxK5zwgHmmIfgbnyUv-11" style="edgeStyle=orthogonalEdgeStyle;rounded=0;orthogonalLoop=1;jettySize=auto;html=1;exitX=1;exitY=0.5;exitDx=0;exitDy=0;entryX=0;entryY=0.5;entryDx=0;entryDy=0;" edge="1" parent="1" source="71vDbNSIMIsE2ZAoYJZC-57" target="RsIxK5zwgHmmIfgbnyUv-10">
          <mxGeometry relative="1" as="geometry" />
        </mxCell>
        <mxCell id="71vDbNSIMIsE2ZAoYJZC-57" value="payment notification" style="rounded=0;whiteSpace=wrap;html=1;" parent="1" vertex="1">
          <mxGeometry x="1111" y="1250" width="100" height="50" as="geometry" />
        </mxCell>
        <mxCell id="RsIxK5zwgHmmIfgbnyUv-3" style="edgeStyle=orthogonalEdgeStyle;rounded=0;orthogonalLoop=1;jettySize=auto;html=1;exitX=0.5;exitY=0;exitDx=0;exitDy=0;entryX=0.5;entryY=1;entryDx=0;entryDy=0;" edge="1" parent="1" source="RsIxK5zwgHmmIfgbnyUv-2" target="71vDbNSIMIsE2ZAoYJZC-3">
          <mxGeometry relative="1" as="geometry" />
        </mxCell>
        <mxCell id="RsIxK5zwgHmmIfgbnyUv-2" value="home page" style="rounded=0;whiteSpace=wrap;html=1;" vertex="1" parent="1">
          <mxGeometry x="980" y="550" width="100" height="50" as="geometry" />
        </mxCell>
        <mxCell id="RsIxK5zwgHmmIfgbnyUv-7" value="" style="endArrow=classic;html=1;rounded=0;entryX=1;entryY=0.5;entryDx=0;entryDy=0;exitX=1;exitY=0.5;exitDx=0;exitDy=0;" edge="1" parent="1" source="RsIxK5zwgHmmIfgbnyUv-10" target="RsIxK5zwgHmmIfgbnyUv-2">
          <mxGeometry width="50" height="50" relative="1" as="geometry">
            <mxPoint x="1200" y="1010" as="sourcePoint" />
            <mxPoint x="1250" y="960" as="targetPoint" />
            <Array as="points">
              <mxPoint x="1390" y="1275" />
              <mxPoint x="1390" y="575" />
            </Array>
          </mxGeometry>
        </mxCell>
        <mxCell id="RsIxK5zwgHmmIfgbnyUv-9" style="edgeStyle=orthogonalEdgeStyle;rounded=0;orthogonalLoop=1;jettySize=auto;html=1;exitX=0.5;exitY=1;exitDx=0;exitDy=0;entryX=0.5;entryY=0;entryDx=0;entryDy=0;" edge="1" parent="1" source="RsIxK5zwgHmmIfgbnyUv-8" target="71vDbNSIMIsE2ZAoYJZC-39">
          <mxGeometry relative="1" as="geometry" />
        </mxCell>
        <mxCell id="RsIxK5zwgHmmIfgbnyUv-8" value="profile page" style="rounded=0;whiteSpace=wrap;html=1;" vertex="1" parent="1">
          <mxGeometry x="990" y="950" width="80" height="40" as="geometry" />
        </mxCell>
        <mxCell id="RsIxK5zwgHmmIfgbnyUv-10" value="legal processes" style="rounded=0;whiteSpace=wrap;html=1;" vertex="1" parent="1">
          <mxGeometry x="1258" y="1250" width="100" height="50" as="geometry" />
        </mxCell>
        <mxCell id="RsIxK5zwgHmmIfgbnyUv-23" style="edgeStyle=orthogonalEdgeStyle;rounded=0;orthogonalLoop=1;jettySize=auto;html=1;entryX=0.5;entryY=1;entryDx=0;entryDy=0;" edge="1" parent="1" source="RsIxK5zwgHmmIfgbnyUv-13" target="RsIxK5zwgHmmIfgbnyUv-17">
          <mxGeometry relative="1" as="geometry" />
        </mxCell>
        <mxCell id="RsIxK5zwgHmmIfgbnyUv-13" value="new demand" style="rounded=0;whiteSpace=wrap;html=1;" vertex="1" parent="1">
          <mxGeometry x="815" y="1190" width="100" height="50" as="geometry" />
        </mxCell>
        <mxCell id="RsIxK5zwgHmmIfgbnyUv-16" value="" style="endArrow=classic;html=1;rounded=0;entryX=0.5;entryY=1;entryDx=0;entryDy=0;exitX=0.5;exitY=1;exitDx=0;exitDy=0;" edge="1" parent="1" source="71vDbNSIMIsE2ZAoYJZC-57" target="RsIxK5zwgHmmIfgbnyUv-13">
          <mxGeometry width="50" height="50" relative="1" as="geometry">
            <mxPoint x="960" y="1090" as="sourcePoint" />
            <mxPoint x="1010" y="1040" as="targetPoint" />
            <Array as="points">
              <mxPoint x="1161" y="1360" />
              <mxPoint x="865" y="1360" />
            </Array>
          </mxGeometry>
        </mxCell>
        <mxCell id="RsIxK5zwgHmmIfgbnyUv-20" value="send" style="edgeStyle=orthogonalEdgeStyle;rounded=0;orthogonalLoop=1;jettySize=auto;html=1;entryX=0.5;entryY=1;entryDx=0;entryDy=0;" edge="1" parent="1" source="RsIxK5zwgHmmIfgbnyUv-17" target="RsIxK5zwgHmmIfgbnyUv-19">
          <mxGeometry relative="1" as="geometry" />
        </mxCell>
        <mxCell id="RsIxK5zwgHmmIfgbnyUv-17" value="board payment" style="rounded=0;whiteSpace=wrap;html=1;" vertex="1" parent="1">
          <mxGeometry x="815" y="1070" width="100" height="50" as="geometry" />
        </mxCell>
        <mxCell id="RsIxK5zwgHmmIfgbnyUv-19" value="dashboard" style="rounded=0;whiteSpace=wrap;html=1;" vertex="1" parent="1">
          <mxGeometry x="815" y="950" width="100" height="50" as="geometry" />
        </mxCell>
        <mxCell id="RsIxK5zwgHmmIfgbnyUv-29" value="send" style="edgeStyle=orthogonalEdgeStyle;rounded=0;orthogonalLoop=1;jettySize=auto;html=1;entryX=1;entryY=0.5;entryDx=0;entryDy=0;" edge="1" parent="1" source="RsIxK5zwgHmmIfgbnyUv-26" target="RsIxK5zwgHmmIfgbnyUv-28">
          <mxGeometry relative="1" as="geometry" />
        </mxCell>
        <mxCell id="RsIxK5zwgHmmIfgbnyUv-26" value="update the process" style="rounded=0;whiteSpace=wrap;html=1;" vertex="1" parent="1">
          <mxGeometry x="690" y="815" width="100" height="50" as="geometry" />
        </mxCell>
        <mxCell id="RsIxK5zwgHmmIfgbnyUv-28" value="the customer is notified by email" style="rounded=0;whiteSpace=wrap;html=1;" vertex="1" parent="1">
          <mxGeometry x="520" y="815" width="100" height="50" as="geometry" />
        </mxCell>
      </root>
    </mxGraphModel>
  </diagram>
</mxfile>
